<svg width="5540" height="1017" viewBox="0 0 5540 1017" fill="none" xmlns="http://www.w3.org/2000/svg">
<path d="M493.89 534.32L278.25 534.32L386.07 347.57L493.89 534.32Z" fill="#982842"/>
<path d="M386.89 721.32L171.25 721.32L279.07 534.57L386.89 721.32Z" fill="#982842"/>
<path d="M277.89 908.32L62.25 908.32L170.07 721.57L277.89 908.32Z" fill="#982842"/>
<path d="M600.89 721.32L385.25 721.32L493.07 534.57L600.89 721.32Z" fill="#DCDCDC"/>
<path d="M600.89 721.32L385.25 721.32L493.07 534.57L600.89 721.32Z" fill="#DCDCDC"/>
<path d="M600.89 721.32L385.25 721.32L493.07 534.57L600.89 721.32Z" fill="#DCDCDC"/>
<path d="M708.89 908.32L493.25 908.32L601.07 721.57L708.89 908.32Z" fill="#DCDCDC"/>
<path d="M708.89 908.32L493.25 908.32L601.07 721.57L708.89 908.32Z" fill="#DCDCDC"/>
<path d="M708.89 908.32L493.25 908.32L601.07 721.57L708.89 908.32Z" fill="#DCDCDC"/>
<path d="M278.5 535L170.68 348.25L386.32 348.25L278.5 535Z" fill="#EAE542"/>
<path d="M385.5 721L277.68 534.25L493.32 534.25L385.5 721Z" fill="#EAE542"/>
<path d="M493.5 535L385.68 348.25L601.32 348.25L493.5 535Z" fill="#EAE542"/>
<path d="M278.5 908L170.68 721.25L386.32 721.25L278.5 908Z" fill="#EAE542"/>
<path d="M493.5 908L385.68 721.25L601.32 721.25L493.5 908Z" fill="#A0A0A0"/>
<path d="M386.89 348.32L171.25 348.32L279.07 161.57L386.89 348.32Z" fill="#982842"/>
<path d="M171.5 348L63.6798 161.25L279.32 161.25L171.5 348Z" fill="#EAE542"/>
<path d="M386.5 348.264L494.32 161.514L602.14 348.264L386.5 348.264Z" fill="#982842"/>
<path d="M494.473 161.89L710.113 161.89L602.293 348.64L494.473 161.89Z" fill="#EAE542"/>
<path d="M1026 711V661H1126V411H1026V361H1326V411H1226V661H1326V711H1026ZM1670 711V461H1720V411H1770V361H1920V411H1970V461H2020V711H1920V611H1770V711H1670ZM1770 561H1920V461H1870V411H1820V461H1770V561ZM2364 711V361H2464V411H2514V461H2564V511H2614V361H2714V711H2614V611H2564V561H2514V511H2464V711H2364ZM3208 711V561H3158V511H3108V361H3208V511H3308V361H3408V511H3358V561H3308V711H3208ZM3752 711V461H3802V411H3852V361H4002V411H4052V461H4102V711H4002V611H3852V711H3752ZM3852 561H4002V461H3952V411H3902V461H3852V561ZM4446 711V361H4546V411H4596V461H4646V511H4696V361H4796V711H4696V611H4646V561H4596V511H4546V711H4446ZM5240 711V661H5190V611H5140V461H5190V411H5240V361H5490V411H5290V461H5240V611H5290V661H5390V561H5340V511H5490V711H5240Z" fill="black"/>
</svg>
